# xmcd CD database file
#
# Track frame offsets:
#	150
#	12989
#	26733
#	42862
#	56597
#	69961
#	83658
#	102161
#	117849
#	129982
#	142773
#	158701
#	171928
#	184625
#	198452
#	217256
#	231197
#	245045
#
# Disc length: 3520 seconds
#
# Revision: 1
# Processed by: cddbd v1.5.1PL0 Copyright (c) Steve Scherf et al.
# Submitted via: CDex 1.50beta9
#
DISCID=f30dbe12
DTITLE=Eddie Condon - The Discovery Of Jazz, Pt. 2
DYEAR=1900
DGENRE=Jazz
TTITLE0=Sensation
TTITLE1=California, Here I Come
TTITLE2=I´m Gonna Stop Mr. Henry Lee
TTITLE3=It´s Right Here For You
TTITLE4=Rose Room
TTITLE5=The Eel
TTITLE6=Embraceable You
TTITLE7=I Must Have That Man
TTITLE8=Ja-Da
TTITLE9=Dancing Foll
TTITLE10=That´s A Serious Thing
TTITLE11=Oh, Sister Ain´t That Hot
TTITLE12=Beat To The Socks
TTITLE13=Diane
TTITLE14=That´s A Plenty
TTITLE15=Original Dixieland One Step
TTITLE16=Love Is Just Around The Corner
TTITLE17=Panama
EXTD=
EXTT0=
EXTT1=
EXTT2=
EXTT3=
EXTT4=
EXTT5=
EXTT6=
EXTT7=
EXTT8=
EXTT9=
EXTT10=
EXTT11=
EXTT12=
EXTT13=
EXTT14=
EXTT15=
EXTT16=
EXTT17=
PLAYORDER=
